<mxfile host="app.diagrams.net" modified="2023-07-03T11:06:30.747Z" agent="Mozilla/5.0 (Macintosh; Intel Mac OS X 10_15_7) AppleWebKit/537.36 (KHTML, like Gecko) Chrome/114.0.0.0 Safari/537.36" etag="jTEdrD7B1zLM0G4qYBsr" version="21.5.0" type="github">
  <diagram name="Halaman-1" id="fqXQCFjYvbC8qxX_4OjK">
    <mxGraphModel dx="1857" dy="1343" grid="0" gridSize="10" guides="1" tooltips="1" connect="1" arrows="1" fold="1" page="0" pageScale="1" pageWidth="827" pageHeight="1169" math="0" shadow="0">
      <root>
        <mxCell id="0" />
        <mxCell id="1" parent="0" />
        <mxCell id="QkKrojBCzopxgcnYF-ks-2" value="users" style="rounded=0;whiteSpace=wrap;html=1;fontSize=16;" vertex="1" parent="1">
          <mxGeometry x="-117" y="126" width="120" height="60" as="geometry" />
        </mxCell>
        <mxCell id="QkKrojBCzopxgcnYF-ks-3" value="driver" style="rounded=0;whiteSpace=wrap;html=1;fontSize=16;" vertex="1" parent="1">
          <mxGeometry x="-117" y="350" width="120" height="60" as="geometry" />
        </mxCell>
        <mxCell id="QkKrojBCzopxgcnYF-ks-4" value="orders" style="rounded=0;whiteSpace=wrap;html=1;fontSize=16;" vertex="1" parent="1">
          <mxGeometry x="144" y="204" width="120" height="60" as="geometry" />
        </mxCell>
        <mxCell id="QkKrojBCzopxgcnYF-ks-15" style="edgeStyle=none;curved=1;rounded=0;orthogonalLoop=1;jettySize=auto;html=1;exitX=1;exitY=0.5;exitDx=0;exitDy=0;entryX=0.5;entryY=0;entryDx=0;entryDy=0;fontSize=12;startSize=8;endSize=8;endArrow=none;endFill=0;" edge="1" parent="1" source="QkKrojBCzopxgcnYF-ks-5" target="QkKrojBCzopxgcnYF-ks-2">
          <mxGeometry relative="1" as="geometry" />
        </mxCell>
        <mxCell id="QkKrojBCzopxgcnYF-ks-5" value="&lt;u&gt;users_id&lt;/u&gt;" style="ellipse;whiteSpace=wrap;html=1;fontSize=16;" vertex="1" parent="1">
          <mxGeometry x="-250" y="63" width="113" height="50" as="geometry" />
        </mxCell>
        <mxCell id="QkKrojBCzopxgcnYF-ks-13" style="edgeStyle=none;curved=1;rounded=0;orthogonalLoop=1;jettySize=auto;html=1;exitX=0.5;exitY=1;exitDx=0;exitDy=0;entryX=0.5;entryY=0;entryDx=0;entryDy=0;fontSize=12;startSize=8;endSize=8;endArrow=none;endFill=0;" edge="1" parent="1" source="QkKrojBCzopxgcnYF-ks-6" target="QkKrojBCzopxgcnYF-ks-2">
          <mxGeometry relative="1" as="geometry" />
        </mxCell>
        <mxCell id="QkKrojBCzopxgcnYF-ks-6" value="nama" style="ellipse;whiteSpace=wrap;html=1;fontSize=16;" vertex="1" parent="1">
          <mxGeometry x="-200" y="-12" width="113" height="50" as="geometry" />
        </mxCell>
        <mxCell id="QkKrojBCzopxgcnYF-ks-10" style="edgeStyle=none;curved=1;rounded=0;orthogonalLoop=1;jettySize=auto;html=1;exitX=0.5;exitY=1;exitDx=0;exitDy=0;entryX=0.5;entryY=0;entryDx=0;entryDy=0;fontSize=12;startSize=8;endSize=8;endArrow=none;endFill=0;" edge="1" parent="1" source="QkKrojBCzopxgcnYF-ks-7" target="QkKrojBCzopxgcnYF-ks-2">
          <mxGeometry relative="1" as="geometry" />
        </mxCell>
        <mxCell id="QkKrojBCzopxgcnYF-ks-7" value="alamat" style="ellipse;whiteSpace=wrap;html=1;fontSize=16;" vertex="1" parent="1">
          <mxGeometry x="-64" y="-22" width="113" height="50" as="geometry" />
        </mxCell>
        <mxCell id="QkKrojBCzopxgcnYF-ks-14" style="edgeStyle=none;curved=1;rounded=0;orthogonalLoop=1;jettySize=auto;html=1;exitX=0;exitY=0.5;exitDx=0;exitDy=0;entryX=0.5;entryY=0;entryDx=0;entryDy=0;fontSize=12;startSize=8;endSize=8;endArrow=none;endFill=0;" edge="1" parent="1" source="QkKrojBCzopxgcnYF-ks-8" target="QkKrojBCzopxgcnYF-ks-2">
          <mxGeometry relative="1" as="geometry" />
        </mxCell>
        <mxCell id="QkKrojBCzopxgcnYF-ks-8" value="telpon" style="ellipse;whiteSpace=wrap;html=1;fontSize=16;" vertex="1" parent="1">
          <mxGeometry x="9" y="50" width="113" height="50" as="geometry" />
        </mxCell>
        <mxCell id="QkKrojBCzopxgcnYF-ks-20" style="edgeStyle=none;curved=1;rounded=0;orthogonalLoop=1;jettySize=auto;html=1;exitX=0.5;exitY=0;exitDx=0;exitDy=0;entryX=0.5;entryY=1;entryDx=0;entryDy=0;fontSize=12;startSize=8;endSize=8;endArrow=none;endFill=0;" edge="1" parent="1" source="QkKrojBCzopxgcnYF-ks-16" target="QkKrojBCzopxgcnYF-ks-3">
          <mxGeometry relative="1" as="geometry" />
        </mxCell>
        <mxCell id="QkKrojBCzopxgcnYF-ks-16" value="&lt;u&gt;driver_id&lt;/u&gt;" style="ellipse;whiteSpace=wrap;html=1;fontSize=16;" vertex="1" parent="1">
          <mxGeometry x="-243" y="458" width="113" height="50" as="geometry" />
        </mxCell>
        <mxCell id="QkKrojBCzopxgcnYF-ks-21" style="edgeStyle=none;curved=1;rounded=0;orthogonalLoop=1;jettySize=auto;html=1;exitX=0.5;exitY=0;exitDx=0;exitDy=0;entryX=0.5;entryY=1;entryDx=0;entryDy=0;fontSize=12;startSize=8;endSize=8;endArrow=none;endFill=0;" edge="1" parent="1" source="QkKrojBCzopxgcnYF-ks-17" target="QkKrojBCzopxgcnYF-ks-3">
          <mxGeometry relative="1" as="geometry" />
        </mxCell>
        <mxCell id="QkKrojBCzopxgcnYF-ks-17" value="nama" style="ellipse;whiteSpace=wrap;html=1;fontSize=16;" vertex="1" parent="1">
          <mxGeometry x="-177" y="541" width="113" height="50" as="geometry" />
        </mxCell>
        <mxCell id="QkKrojBCzopxgcnYF-ks-23" style="edgeStyle=none;curved=1;rounded=0;orthogonalLoop=1;jettySize=auto;html=1;exitX=0.5;exitY=0;exitDx=0;exitDy=0;entryX=0.5;entryY=1;entryDx=0;entryDy=0;fontSize=12;startSize=8;endSize=8;endArrow=none;endFill=0;" edge="1" parent="1" source="QkKrojBCzopxgcnYF-ks-18" target="QkKrojBCzopxgcnYF-ks-3">
          <mxGeometry relative="1" as="geometry" />
        </mxCell>
        <mxCell id="QkKrojBCzopxgcnYF-ks-18" value="alamat" style="ellipse;whiteSpace=wrap;html=1;fontSize=16;" vertex="1" parent="1">
          <mxGeometry x="-50" y="544" width="113" height="50" as="geometry" />
        </mxCell>
        <mxCell id="QkKrojBCzopxgcnYF-ks-22" style="edgeStyle=none;curved=1;rounded=0;orthogonalLoop=1;jettySize=auto;html=1;exitX=0.5;exitY=0;exitDx=0;exitDy=0;entryX=0.5;entryY=1;entryDx=0;entryDy=0;fontSize=12;startSize=8;endSize=8;endArrow=none;endFill=0;" edge="1" parent="1" source="QkKrojBCzopxgcnYF-ks-19" target="QkKrojBCzopxgcnYF-ks-3">
          <mxGeometry relative="1" as="geometry" />
        </mxCell>
        <mxCell id="QkKrojBCzopxgcnYF-ks-19" value="telpon" style="ellipse;whiteSpace=wrap;html=1;fontSize=16;" vertex="1" parent="1">
          <mxGeometry x="12" y="445" width="113" height="50" as="geometry" />
        </mxCell>
      </root>
    </mxGraphModel>
  </diagram>
</mxfile>
